# xmcd
#
# Track frame offsets: 
#        150
#        15367
#        28965
#        45831
#        54125
#        69050
#        90345
#        102822
#        116649
#        126352
#        161444
#        172634
#        192214
#        205276
#        222276
#        238301
#        250099
#        267886
#        285789
#        318989
#
# Disc length: 4466 seconds
#
# Revision: 0
# Processed by: cddbd v1.5.2PL0 Copyright (c) Steve Scherf et al.
# Submitted via: ExactAudioCopy v1.0b1
#
DISCID=fa117014
DTITLE=Wild Willy Barrett - The Anthology [Disk 1]
DYEAR=2008
DGENRE=Blues
TTITLE0=Notting Hill
TTITLE1=Really Free
TTITLE2=Hedgehog Song
TTITLE3=Pure Religion
TTITLE4=We've Gotta Get Out of This Place
TTITLE5=Pure Willy
TTITLE6=A Shot of Redeye
TTITLE7=Let's Play Schools
TTITLE8=Ma Brown
TTITLE9=Loneliness of the Long Distance Acoustic Guitarist
TTITLE10=Hair Across the Frets
TTITLE11=One Leg Blues
TTITLE12=The Lambeth Trot
TTITLE13=Please Don't Throw Me to the Christians
TTITLE14=Tales From the Raj
TTITLE15=Milkfloat Blues
TTITLE16=Jack of Diamonds
TTITLE17=Boris
TTITLE18=Gypsies Too
TTITLE19=Sleeping Dogz
EXTD=
EXTT0=
EXTT1=
EXTT2=
EXTT3=
EXTT4=
EXTT5=
EXTT6=
EXTT7=
EXTT8=
EXTT9=
EXTT10=
EXTT11=
EXTT12=
EXTT13=
EXTT14=
EXTT15=
EXTT16=
EXTT17=
EXTT18=
EXTT19=
PLAYORDER=
